<svg xmlns="http://www.w3.org/2000/svg" viewBox="0 0 750 1125" preserveAspectRatio="xMidYMid" width="750" height="1125" xmlns:xlink="http://www.w3.org/1999/xlink" style="shape-rendering:auto;display:block;background-position-x:0%;background-position-y:0%;background-size:auto;background-origin:padding-box;background-clip:border-box;background:scroll rgb(255, 255, 255) none  repeat;width:750px;height:1125px;;animation:none"><g><rect fill="#d20962" height="30.125" width="171" y="-1" x="0" style="fill:rgb(210, 9, 98);;animation:none"></rect>
<rect fill="#f47721" height="30.125" width="69" y="-1" x="170" style="fill:rgb(244, 119, 33);;animation:none"></rect>
<rect fill="#7ac143" height="30.125" width="111" y="-1" x="239" style="fill:rgb(122, 193, 67);;animation:none"></rect>
<rect fill="#00a78e" height="30.125" width="152" y="-1" x="349" style="fill:rgb(0, 167, 142);;animation:none"></rect>
<rect fill="#00bce4" height="30.125" width="84" y="-1" x="500" style="fill:rgb(0, 188, 228);;animation:none"></rect>
<rect fill="#7d3f98" height="30.125" width="167" y="-1" x="583" style="fill:rgb(125, 63, 152);;animation:none"></rect>
<rect fill="#d20962" height="30.125" width="260" y="27.1" x="0" style="fill:rgb(210, 9, 98);;animation:none"></rect>
<rect fill="#f47721" height="30.125" width="41" y="27.1" x="259" style="fill:rgb(244, 119, 33);;animation:none"></rect>
<rect fill="#7ac143" height="30.125" width="57" y="27.1" x="300" style="fill:rgb(122, 193, 67);;animation:none"></rect>
<rect fill="#00a78e" height="30.125" width="308" y="27.1" x="356" style="fill:rgb(0, 167, 142);;animation:none"></rect>
<rect fill="#00bce4" height="30.125" width="58" y="27.1" x="664" style="fill:rgb(0, 188, 228);;animation:none"></rect>
<rect fill="#7d3f98" height="30.125" width="29" y="27.1" x="721" style="fill:rgb(125, 63, 152);;animation:none"></rect>
<rect fill="#d20962" height="30.125" width="178" y="55.3" x="0" style="fill:rgb(210, 9, 98);;animation:none"></rect>
<rect fill="#f47721" height="30.125" width="150" y="55.3" x="177" style="fill:rgb(244, 119, 33);;animation:none"></rect>
<rect fill="#7ac143" height="30.125" width="191" y="55.3" x="326" style="fill:rgb(122, 193, 67);;animation:none"></rect>
<rect fill="#00a78e" height="30.125" width="57" y="55.3" x="516" style="fill:rgb(0, 167, 142);;animation:none"></rect>
<rect fill="#00bce4" height="30.125" width="146" y="55.3" x="572" style="fill:rgb(0, 188, 228);;animation:none"></rect>
<rect fill="#7d3f98" height="30.125" width="32" y="55.3" x="718" style="fill:rgb(125, 63, 152);;animation:none"></rect>
<rect fill="#d20962" height="30.125" width="59" y="83.4" x="0" style="fill:rgb(210, 9, 98);;animation:none"></rect>
<rect fill="#f47721" height="30.125" width="81" y="83.4" x="58" style="fill:rgb(244, 119, 33);;animation:none"></rect>
<rect fill="#7ac143" height="30.125" width="264" y="83.4" x="138" style="fill:rgb(122, 193, 67);;animation:none"></rect>
<rect fill="#00a78e" height="30.125" width="84" y="83.4" x="401" style="fill:rgb(0, 167, 142);;animation:none"></rect>
<rect fill="#00bce4" height="30.125" width="34" y="83.4" x="485" style="fill:rgb(0, 188, 228);;animation:none"></rect>
<rect fill="#7d3f98" height="30.125" width="231" y="83.4" x="519" style="fill:rgb(125, 63, 152);;animation:none"></rect>
<rect fill="#d20962" height="30.125" width="211" y="111.5" x="0" style="fill:rgb(210, 9, 98);;animation:none"></rect>
<rect fill="#f47721" height="30.125" width="179" y="111.5" x="210" style="fill:rgb(244, 119, 33);;animation:none"></rect>
<rect fill="#7ac143" height="30.125" width="85" y="111.5" x="388" style="fill:rgb(122, 193, 67);;animation:none"></rect>
<rect fill="#00a78e" height="30.125" width="109" y="111.5" x="473" style="fill:rgb(0, 167, 142);;animation:none"></rect>
<rect fill="#00bce4" height="30.125" width="57" y="111.5" x="582" style="fill:rgb(0, 188, 228);;animation:none"></rect>
<rect fill="#7d3f98" height="30.125" width="111" y="111.5" x="639" style="fill:rgb(125, 63, 152);;animation:none"></rect>
<rect fill="#d20962" height="30.125" width="138" y="139.6" x="0" style="fill:rgb(210, 9, 98);;animation:none"></rect>
<rect fill="#f47721" height="30.125" width="169" y="139.6" x="137" style="fill:rgb(244, 119, 33);;animation:none"></rect>
<rect fill="#7ac143" height="30.125" width="183" y="139.6" x="305" style="fill:rgb(122, 193, 67);;animation:none"></rect>
<rect fill="#00a78e" height="30.125" width="126" y="139.6" x="488" style="fill:rgb(0, 167, 142);;animation:none"></rect>
<rect fill="#00bce4" height="30.125" width="81" y="139.6" x="613" style="fill:rgb(0, 188, 228);;animation:none"></rect>
<rect fill="#7d3f98" height="30.125" width="56" y="139.6" x="694" style="fill:rgb(125, 63, 152);;animation:none"></rect>
<rect fill="#d20962" height="30.125" width="51" y="167.8" x="0" style="fill:rgb(210, 9, 98);;animation:none"></rect>
<rect fill="#f47721" height="30.125" width="178" y="167.8" x="50" style="fill:rgb(244, 119, 33);;animation:none"></rect>
<rect fill="#7ac143" height="30.125" width="139" y="167.8" x="227" style="fill:rgb(122, 193, 67);;animation:none"></rect>
<rect fill="#00a78e" height="30.125" width="324" y="167.8" x="366" style="fill:rgb(0, 167, 142);;animation:none"></rect>
<rect fill="#00bce4" height="30.125" width="45" y="167.8" x="690" style="fill:rgb(0, 188, 228);;animation:none"></rect>
<rect fill="#7d3f98" height="30.125" width="16" y="167.8" x="734" style="fill:rgb(125, 63, 152);;animation:none"></rect>
<rect fill="#d20962" height="30.125" width="88" y="195.9" x="0" style="fill:rgb(210, 9, 98);;animation:none"></rect>
<rect fill="#f47721" height="30.125" width="192" y="195.9" x="87" style="fill:rgb(244, 119, 33);;animation:none"></rect>
<rect fill="#7ac143" height="30.125" width="137" y="195.9" x="279" style="fill:rgb(122, 193, 67);;animation:none"></rect>
<rect fill="#00a78e" height="30.125" width="94" y="195.9" x="416" style="fill:rgb(0, 167, 142);;animation:none"></rect>
<rect fill="#00bce4" height="30.125" width="126" y="195.9" x="509" style="fill:rgb(0, 188, 228);;animation:none"></rect>
<rect fill="#7d3f98" height="30.125" width="115" y="195.9" x="635" style="fill:rgb(125, 63, 152);;animation:none"></rect>
<rect fill="#d20962" height="30.125" width="210" y="224" x="0" style="fill:rgb(210, 9, 98);;animation:none"></rect>
<rect fill="#f47721" height="30.125" width="92" y="224" x="209" style="fill:rgb(244, 119, 33);;animation:none"></rect>
<rect fill="#7ac143" height="30.125" width="109" y="224" x="300" style="fill:rgb(122, 193, 67);;animation:none"></rect>
<rect fill="#00a78e" height="30.125" width="120" y="224" x="409" style="fill:rgb(0, 167, 142);;animation:none"></rect>
<rect fill="#00bce4" height="30.125" width="123" y="224" x="528" style="fill:rgb(0, 188, 228);;animation:none"></rect>
<rect fill="#7d3f98" height="30.125" width="99" y="224" x="651" style="fill:rgb(125, 63, 152);;animation:none"></rect>
<rect fill="#d20962" height="30.125" width="122" y="252.1" x="0" style="fill:rgb(210, 9, 98);;animation:none"></rect>
<rect fill="#f47721" height="30.125" width="191" y="252.1" x="121" style="fill:rgb(244, 119, 33);;animation:none"></rect>
<rect fill="#7ac143" height="30.125" width="222" y="252.1" x="312" style="fill:rgb(122, 193, 67);;animation:none"></rect>
<rect fill="#00a78e" height="30.125" width="76" y="252.1" x="533" style="fill:rgb(0, 167, 142);;animation:none"></rect>
<rect fill="#00bce4" height="30.125" width="122" y="252.1" x="609" style="fill:rgb(0, 188, 228);;animation:none"></rect>
<rect fill="#7d3f98" height="30.125" width="19" y="252.1" x="731" style="fill:rgb(125, 63, 152);;animation:none"></rect>
<rect fill="#d20962" height="30.125" width="216" y="280.3" x="0" style="fill:rgb(210, 9, 98);;animation:none"></rect>
<rect fill="#f47721" height="30.125" width="28" y="280.3" x="215" style="fill:rgb(244, 119, 33);;animation:none"></rect>
<rect fill="#7ac143" height="30.125" width="160" y="280.3" x="242" style="fill:rgb(122, 193, 67);;animation:none"></rect>
<rect fill="#00a78e" height="30.125" width="112" y="280.3" x="402" style="fill:rgb(0, 167, 142);;animation:none"></rect>
<rect fill="#00bce4" height="30.125" width="44" y="280.3" x="513" style="fill:rgb(0, 188, 228);;animation:none"></rect>
<rect fill="#7d3f98" height="30.125" width="193" y="280.3" x="557" style="fill:rgb(125, 63, 152);;animation:none"></rect>
<rect fill="#d20962" height="30.125" width="226" y="308.4" x="0" style="fill:rgb(210, 9, 98);;animation:none"></rect>
<rect fill="#f47721" height="30.125" width="184" y="308.4" x="225" style="fill:rgb(244, 119, 33);;animation:none"></rect>
<rect fill="#7ac143" height="30.125" width="192" y="308.4" x="409" style="fill:rgb(122, 193, 67);;animation:none"></rect>
<rect fill="#00a78e" height="30.125" width="39" y="308.4" x="600" style="fill:rgb(0, 167, 142);;animation:none"></rect>
<rect fill="#00bce4" height="30.125" width="77" y="308.4" x="639" style="fill:rgb(0, 188, 228);;animation:none"></rect>
<rect fill="#7d3f98" height="30.125" width="34" y="308.4" x="716" style="fill:rgb(125, 63, 152);;animation:none"></rect>
<rect fill="#d20962" height="30.125" width="67" y="336.5" x="0" style="fill:rgb(210, 9, 98);;animation:none"></rect>
<rect fill="#f47721" height="30.125" width="52" y="336.5" x="66" style="fill:rgb(244, 119, 33);;animation:none"></rect>
<rect fill="#7ac143" height="30.125" width="136" y="336.5" x="117" style="fill:rgb(122, 193, 67);;animation:none"></rect>
<rect fill="#00a78e" height="30.125" width="144" y="336.5" x="253" style="fill:rgb(0, 167, 142);;animation:none"></rect>
<rect fill="#00bce4" height="30.125" width="197" y="336.5" x="396" style="fill:rgb(0, 188, 228);;animation:none"></rect>
<rect fill="#7d3f98" height="30.125" width="158" y="336.5" x="592" style="fill:rgb(125, 63, 152);;animation:none"></rect>
<rect fill="#d20962" height="30.125" width="212" y="364.6" x="0" style="fill:rgb(210, 9, 98);;animation:none"></rect>
<rect fill="#f47721" height="30.125" width="28" y="364.6" x="211" style="fill:rgb(244, 119, 33);;animation:none"></rect>
<rect fill="#7ac143" height="30.125" width="48" y="364.6" x="238" style="fill:rgb(122, 193, 67);;animation:none"></rect>
<rect fill="#00a78e" height="30.125" width="79" y="364.6" x="286" style="fill:rgb(0, 167, 142);;animation:none"></rect>
<rect fill="#00bce4" height="30.125" width="257" y="364.6" x="365" style="fill:rgb(0, 188, 228);;animation:none"></rect>
<rect fill="#7d3f98" height="30.125" width="128" y="364.6" x="622" style="fill:rgb(125, 63, 152);;animation:none"></rect>
<rect fill="#d20962" height="30.125" width="218" y="392.8" x="0" style="fill:rgb(210, 9, 98);;animation:none"></rect>
<rect fill="#f47721" height="30.125" width="49" y="392.8" x="217" style="fill:rgb(244, 119, 33);;animation:none"></rect>
<rect fill="#7ac143" height="30.125" width="123" y="392.8" x="265" style="fill:rgb(122, 193, 67);;animation:none"></rect>
<rect fill="#00a78e" height="30.125" width="235" y="392.8" x="388" style="fill:rgb(0, 167, 142);;animation:none"></rect>
<rect fill="#00bce4" height="30.125" width="54" y="392.8" x="622" style="fill:rgb(0, 188, 228);;animation:none"></rect>
<rect fill="#7d3f98" height="30.125" width="74" y="392.8" x="676" style="fill:rgb(125, 63, 152);;animation:none"></rect>
<rect fill="#d20962" height="30.125" width="25" y="420.9" x="0" style="fill:rgb(210, 9, 98);;animation:none"></rect>
<rect fill="#f47721" height="30.125" width="177" y="420.9" x="24" style="fill:rgb(244, 119, 33);;animation:none"></rect>
<rect fill="#7ac143" height="30.125" width="169" y="420.9" x="201" style="fill:rgb(122, 193, 67);;animation:none"></rect>
<rect fill="#00a78e" height="30.125" width="149" y="420.9" x="369" style="fill:rgb(0, 167, 142);;animation:none"></rect>
<rect fill="#00bce4" height="30.125" width="97" y="420.9" x="517" style="fill:rgb(0, 188, 228);;animation:none"></rect>
<rect fill="#7d3f98" height="30.125" width="136" y="420.9" x="614" style="fill:rgb(125, 63, 152);;animation:none"></rect>
<rect fill="#d20962" height="30.125" width="78" y="449" x="0" style="fill:rgb(210, 9, 98);;animation:none"></rect>
<rect fill="#f47721" height="30.125" width="120" y="449" x="77" style="fill:rgb(244, 119, 33);;animation:none"></rect>
<rect fill="#7ac143" height="30.125" width="149" y="449" x="197" style="fill:rgb(122, 193, 67);;animation:none"></rect>
<rect fill="#00a78e" height="30.125" width="143" y="449" x="345" style="fill:rgb(0, 167, 142);;animation:none"></rect>
<rect fill="#00bce4" height="30.125" width="125" y="449" x="488" style="fill:rgb(0, 188, 228);;animation:none"></rect>
<rect fill="#7d3f98" height="30.125" width="138" y="449" x="612" style="fill:rgb(125, 63, 152);;animation:none"></rect>
<rect fill="#d20962" height="30.125" width="243" y="477.1" x="0" style="fill:rgb(210, 9, 98);;animation:none"></rect>
<rect fill="#f47721" height="30.125" width="176" y="477.1" x="242" style="fill:rgb(244, 119, 33);;animation:none"></rect>
<rect fill="#7ac143" height="30.125" width="53" y="477.1" x="417" style="fill:rgb(122, 193, 67);;animation:none"></rect>
<rect fill="#00a78e" height="30.125" width="75" y="477.1" x="469" style="fill:rgb(0, 167, 142);;animation:none"></rect>
<rect fill="#00bce4" height="30.125" width="130" y="477.1" x="544" style="fill:rgb(0, 188, 228);;animation:none"></rect>
<rect fill="#7d3f98" height="30.125" width="76" y="477.1" x="674" style="fill:rgb(125, 63, 152);;animation:none"></rect>
<rect fill="#d20962" height="30.125" width="83" y="505.3" x="0" style="fill:rgb(210, 9, 98);;animation:none"></rect>
<rect fill="#f47721" height="30.125" width="49" y="505.3" x="82" style="fill:rgb(244, 119, 33);;animation:none"></rect>
<rect fill="#7ac143" height="30.125" width="154" y="505.3" x="131" style="fill:rgb(122, 193, 67);;animation:none"></rect>
<rect fill="#00a78e" height="30.125" width="139" y="505.3" x="284" style="fill:rgb(0, 167, 142);;animation:none"></rect>
<rect fill="#00bce4" height="30.125" width="154" y="505.3" x="423" style="fill:rgb(0, 188, 228);;animation:none"></rect>
<rect fill="#7d3f98" height="30.125" width="174" y="505.3" x="576" style="fill:rgb(125, 63, 152);;animation:none"></rect>
<rect fill="#d20962" height="30.125" width="144" y="533.4" x="0" style="fill:rgb(210, 9, 98);;animation:none"></rect>
<rect fill="#f47721" height="30.125" width="163" y="533.4" x="143" style="fill:rgb(244, 119, 33);;animation:none"></rect>
<rect fill="#7ac143" height="30.125" width="134" y="533.4" x="306" style="fill:rgb(122, 193, 67);;animation:none"></rect>
<rect fill="#00a78e" height="30.125" width="203" y="533.4" x="439" style="fill:rgb(0, 167, 142);;animation:none"></rect>
<rect fill="#00bce4" height="30.125" width="69" y="533.4" x="641" style="fill:rgb(0, 188, 228);;animation:none"></rect>
<rect fill="#7d3f98" height="30.125" width="41" y="533.4" x="709" style="fill:rgb(125, 63, 152);;animation:none"></rect>
<rect fill="#d20962" height="30.125" width="130" y="561.5" x="0" style="fill:rgb(210, 9, 98);;animation:none"></rect>
<rect fill="#f47721" height="30.125" width="119" y="561.5" x="129" style="fill:rgb(244, 119, 33);;animation:none"></rect>
<rect fill="#7ac143" height="30.125" width="158" y="561.5" x="248" style="fill:rgb(122, 193, 67);;animation:none"></rect>
<rect fill="#00a78e" height="30.125" width="196" y="561.5" x="406" style="fill:rgb(0, 167, 142);;animation:none"></rect>
<rect fill="#00bce4" height="30.125" width="71" y="561.5" x="601" style="fill:rgb(0, 188, 228);;animation:none"></rect>
<rect fill="#7d3f98" height="30.125" width="79" y="561.5" x="671" style="fill:rgb(125, 63, 152);;animation:none"></rect>
<rect fill="#d20962" height="30.125" width="45" y="589.6" x="0" style="fill:rgb(210, 9, 98);;animation:none"></rect>
<rect fill="#f47721" height="30.125" width="141" y="589.6" x="44" style="fill:rgb(244, 119, 33);;animation:none"></rect>
<rect fill="#7ac143" height="30.125" width="122" y="589.6" x="185" style="fill:rgb(122, 193, 67);;animation:none"></rect>
<rect fill="#00a78e" height="30.125" width="141" y="589.6" x="307" style="fill:rgb(0, 167, 142);;animation:none"></rect>
<rect fill="#00bce4" height="30.125" width="211" y="589.6" x="447" style="fill:rgb(0, 188, 228);;animation:none"></rect>
<rect fill="#7d3f98" height="30.125" width="93" y="589.6" x="657" style="fill:rgb(125, 63, 152);;animation:none"></rect>
<rect fill="#d20962" height="30.125" width="4" y="617.8" x="0" style="fill:rgb(210, 9, 98);;animation:none"></rect>
<rect fill="#f47721" height="30.125" width="145" y="617.8" x="3" style="fill:rgb(244, 119, 33);;animation:none"></rect>
<rect fill="#7ac143" height="30.125" width="143" y="617.8" x="148" style="fill:rgb(122, 193, 67);;animation:none"></rect>
<rect fill="#00a78e" height="30.125" width="209" y="617.8" x="291" style="fill:rgb(0, 167, 142);;animation:none"></rect>
<rect fill="#00bce4" height="30.125" width="83" y="617.8" x="499" style="fill:rgb(0, 188, 228);;animation:none"></rect>
<rect fill="#7d3f98" height="30.125" width="169" y="617.8" x="581" style="fill:rgb(125, 63, 152);;animation:none"></rect>
<rect fill="#d20962" height="30.125" width="205" y="645.9" x="0" style="fill:rgb(210, 9, 98);;animation:none"></rect>
<rect fill="#f47721" height="30.125" width="101" y="645.9" x="204" style="fill:rgb(244, 119, 33);;animation:none"></rect>
<rect fill="#7ac143" height="30.125" width="179" y="645.9" x="304" style="fill:rgb(122, 193, 67);;animation:none"></rect>
<rect fill="#00a78e" height="30.125" width="25" y="645.9" x="483" style="fill:rgb(0, 167, 142);;animation:none"></rect>
<rect fill="#00bce4" height="30.125" width="141" y="645.9" x="508" style="fill:rgb(0, 188, 228);;animation:none"></rect>
<rect fill="#7d3f98" height="30.125" width="102" y="645.9" x="648" style="fill:rgb(125, 63, 152);;animation:none"></rect>
<rect fill="#d20962" height="30.125" width="32" y="674" x="0" style="fill:rgb(210, 9, 98);;animation:none"></rect>
<rect fill="#f47721" height="30.125" width="102" y="674" x="31" style="fill:rgb(244, 119, 33);;animation:none"></rect>
<rect fill="#7ac143" height="30.125" width="220" y="674" x="133" style="fill:rgb(122, 193, 67);;animation:none"></rect>
<rect fill="#00a78e" height="30.125" width="253" y="674" x="352" style="fill:rgb(0, 167, 142);;animation:none"></rect>
<rect fill="#00bce4" height="30.125" width="59" y="674" x="605" style="fill:rgb(0, 188, 228);;animation:none"></rect>
<rect fill="#7d3f98" height="30.125" width="87" y="674" x="663" style="fill:rgb(125, 63, 152);;animation:none"></rect>
<rect fill="#d20962" height="30.125" width="115" y="702.1" x="0" style="fill:rgb(210, 9, 98);;animation:none"></rect>
<rect fill="#f47721" height="30.125" width="216" y="702.1" x="114" style="fill:rgb(244, 119, 33);;animation:none"></rect>
<rect fill="#7ac143" height="30.125" width="106" y="702.1" x="330" style="fill:rgb(122, 193, 67);;animation:none"></rect>
<rect fill="#00a78e" height="30.125" width="155" y="702.1" x="436" style="fill:rgb(0, 167, 142);;animation:none"></rect>
<rect fill="#00bce4" height="30.125" width="108" y="702.1" x="591" style="fill:rgb(0, 188, 228);;animation:none"></rect>
<rect fill="#7d3f98" height="30.125" width="52" y="702.1" x="698" style="fill:rgb(125, 63, 152);;animation:none"></rect>
<rect fill="#d20962" height="30.125" width="111" y="730.3" x="0" style="fill:rgb(210, 9, 98);;animation:none"></rect>
<rect fill="#f47721" height="30.125" width="156" y="730.3" x="110" style="fill:rgb(244, 119, 33);;animation:none"></rect>
<rect fill="#7ac143" height="30.125" width="89" y="730.3" x="265" style="fill:rgb(122, 193, 67);;animation:none"></rect>
<rect fill="#00a78e" height="30.125" width="153" y="730.3" x="354" style="fill:rgb(0, 167, 142);;animation:none"></rect>
<rect fill="#00bce4" height="30.125" width="88" y="730.3" x="507" style="fill:rgb(0, 188, 228);;animation:none"></rect>
<rect fill="#7d3f98" height="30.125" width="156" y="730.3" x="594" style="fill:rgb(125, 63, 152);;animation:none"></rect>
<rect fill="#d20962" height="30.125" width="100" y="758.4" x="0" style="fill:rgb(210, 9, 98);;animation:none"></rect>
<rect fill="#f47721" height="30.125" width="57" y="758.4" x="99" style="fill:rgb(244, 119, 33);;animation:none"></rect>
<rect fill="#7ac143" height="30.125" width="136" y="758.4" x="155" style="fill:rgb(122, 193, 67);;animation:none"></rect>
<rect fill="#00a78e" height="30.125" width="126" y="758.4" x="291" style="fill:rgb(0, 167, 142);;animation:none"></rect>
<rect fill="#00bce4" height="30.125" width="66" y="758.4" x="416" style="fill:rgb(0, 188, 228);;animation:none"></rect>
<rect fill="#7d3f98" height="30.125" width="268" y="758.4" x="482" style="fill:rgb(125, 63, 152);;animation:none"></rect>
<rect fill="#d20962" height="30.125" width="97" y="786.5" x="0" style="fill:rgb(210, 9, 98);;animation:none"></rect>
<rect fill="#f47721" height="30.125" width="126" y="786.5" x="96" style="fill:rgb(244, 119, 33);;animation:none"></rect>
<rect fill="#7ac143" height="30.125" width="250" y="786.5" x="222" style="fill:rgb(122, 193, 67);;animation:none"></rect>
<rect fill="#00a78e" height="30.125" width="59" y="786.5" x="471" style="fill:rgb(0, 167, 142);;animation:none"></rect>
<rect fill="#00bce4" height="30.125" width="135" y="786.5" x="529" style="fill:rgb(0, 188, 228);;animation:none"></rect>
<rect fill="#7d3f98" height="30.125" width="87" y="786.5" x="663" style="fill:rgb(125, 63, 152);;animation:none"></rect>
<rect fill="#d20962" height="30.125" width="134" y="814.6" x="0" style="fill:rgb(210, 9, 98);;animation:none"></rect>
<rect fill="#f47721" height="30.125" width="138" y="814.6" x="133" style="fill:rgb(244, 119, 33);;animation:none"></rect>
<rect fill="#7ac143" height="30.125" width="48" y="814.6" x="270" style="fill:rgb(122, 193, 67);;animation:none"></rect>
<rect fill="#00a78e" height="30.125" width="147" y="814.6" x="317" style="fill:rgb(0, 167, 142);;animation:none"></rect>
<rect fill="#00bce4" height="30.125" width="156" y="814.6" x="464" style="fill:rgb(0, 188, 228);;animation:none"></rect>
<rect fill="#7d3f98" height="30.125" width="131" y="814.6" x="619" style="fill:rgb(125, 63, 152);;animation:none"></rect>
<rect fill="#d20962" height="30.125" width="261" y="842.8" x="0" style="fill:rgb(210, 9, 98);;animation:none"></rect>
<rect fill="#f47721" height="30.125" width="34" y="842.8" x="260" style="fill:rgb(244, 119, 33);;animation:none"></rect>
<rect fill="#7ac143" height="30.125" width="223" y="842.8" x="294" style="fill:rgb(122, 193, 67);;animation:none"></rect>
<rect fill="#00a78e" height="30.125" width="109" y="842.8" x="516" style="fill:rgb(0, 167, 142);;animation:none"></rect>
<rect fill="#00bce4" height="30.125" width="53" y="842.8" x="625" style="fill:rgb(0, 188, 228);;animation:none"></rect>
<rect fill="#7d3f98" height="30.125" width="73" y="842.8" x="677" style="fill:rgb(125, 63, 152);;animation:none"></rect>
<rect fill="#d20962" height="30.125" width="185" y="870.9" x="0" style="fill:rgb(210, 9, 98);;animation:none"></rect>
<rect fill="#f47721" height="30.125" width="155" y="870.9" x="184" style="fill:rgb(244, 119, 33);;animation:none"></rect>
<rect fill="#7ac143" height="30.125" width="168" y="870.9" x="338" style="fill:rgb(122, 193, 67);;animation:none"></rect>
<rect fill="#00a78e" height="30.125" width="76" y="870.9" x="506" style="fill:rgb(0, 167, 142);;animation:none"></rect>
<rect fill="#00bce4" height="30.125" width="47" y="870.9" x="582" style="fill:rgb(0, 188, 228);;animation:none"></rect>
<rect fill="#7d3f98" height="30.125" width="122" y="870.9" x="628" style="fill:rgb(125, 63, 152);;animation:none"></rect>
<rect fill="#d20962" height="30.125" width="140" y="899" x="0" style="fill:rgb(210, 9, 98);;animation:none"></rect>
<rect fill="#f47721" height="30.125" width="36" y="899" x="139" style="fill:rgb(244, 119, 33);;animation:none"></rect>
<rect fill="#7ac143" height="30.125" width="129" y="899" x="175" style="fill:rgb(122, 193, 67);;animation:none"></rect>
<rect fill="#00a78e" height="30.125" width="105" y="899" x="304" style="fill:rgb(0, 167, 142);;animation:none"></rect>
<rect fill="#00bce4" height="30.125" width="76" y="899" x="409" style="fill:rgb(0, 188, 228);;animation:none"></rect>
<rect fill="#7d3f98" height="30.125" width="266" y="899" x="484" style="fill:rgb(125, 63, 152);;animation:none"></rect>
<rect fill="#d20962" height="30.125" width="78" y="927.1" x="0" style="fill:rgb(210, 9, 98);;animation:none"></rect>
<rect fill="#f47721" height="30.125" width="170" y="927.1" x="77" style="fill:rgb(244, 119, 33);;animation:none"></rect>
<rect fill="#7ac143" height="30.125" width="24" y="927.1" x="247" style="fill:rgb(122, 193, 67);;animation:none"></rect>
<rect fill="#00a78e" height="30.125" width="127" y="927.1" x="270" style="fill:rgb(0, 167, 142);;animation:none"></rect>
<rect fill="#00bce4" height="30.125" width="148" y="927.1" x="396" style="fill:rgb(0, 188, 228);;animation:none"></rect>
<rect fill="#7d3f98" height="30.125" width="206" y="927.1" x="544" style="fill:rgb(125, 63, 152);;animation:none"></rect>
<rect fill="#d20962" height="30.125" width="110" y="955.3" x="0" style="fill:rgb(210, 9, 98);;animation:none"></rect>
<rect fill="#f47721" height="30.125" width="226" y="955.3" x="109" style="fill:rgb(244, 119, 33);;animation:none"></rect>
<rect fill="#7ac143" height="30.125" width="47" y="955.3" x="334" style="fill:rgb(122, 193, 67);;animation:none"></rect>
<rect fill="#00a78e" height="30.125" width="209" y="955.3" x="380" style="fill:rgb(0, 167, 142);;animation:none"></rect>
<rect fill="#00bce4" height="30.125" width="74" y="955.3" x="589" style="fill:rgb(0, 188, 228);;animation:none"></rect>
<rect fill="#7d3f98" height="30.125" width="88" y="955.3" x="662" style="fill:rgb(125, 63, 152);;animation:none"></rect>
<rect fill="#d20962" height="30.125" width="36" y="983.4" x="0" style="fill:rgb(210, 9, 98);;animation:none"></rect>
<rect fill="#f47721" height="30.125" width="17" y="983.4" x="35" style="fill:rgb(244, 119, 33);;animation:none"></rect>
<rect fill="#7ac143" height="30.125" width="65" y="983.4" x="52" style="fill:rgb(122, 193, 67);;animation:none"></rect>
<rect fill="#00a78e" height="30.125" width="216" y="983.4" x="117" style="fill:rgb(0, 167, 142);;animation:none"></rect>
<rect fill="#00bce4" height="30.125" width="225" y="983.4" x="333" style="fill:rgb(0, 188, 228);;animation:none"></rect>
<rect fill="#7d3f98" height="30.125" width="193" y="983.4" x="557" style="fill:rgb(125, 63, 152);;animation:none"></rect>
<rect fill="#d20962" height="30.125" width="130" y="1011.5" x="0" style="fill:rgb(210, 9, 98);;animation:none"></rect>
<rect fill="#f47721" height="30.125" width="81" y="1011.5" x="129" style="fill:rgb(244, 119, 33);;animation:none"></rect>
<rect fill="#7ac143" height="30.125" width="58" y="1011.5" x="210" style="fill:rgb(122, 193, 67);;animation:none"></rect>
<rect fill="#00a78e" height="30.125" width="168" y="1011.5" x="267" style="fill:rgb(0, 167, 142);;animation:none"></rect>
<rect fill="#00bce4" height="30.125" width="241" y="1011.5" x="434" style="fill:rgb(0, 188, 228);;animation:none"></rect>
<rect fill="#7d3f98" height="30.125" width="75" y="1011.5" x="675" style="fill:rgb(125, 63, 152);;animation:none"></rect>
<rect fill="#d20962" height="30.125" width="210" y="1039.6" x="0" style="fill:rgb(210, 9, 98);;animation:none"></rect>
<rect fill="#f47721" height="30.125" width="120" y="1039.6" x="209" style="fill:rgb(244, 119, 33);;animation:none"></rect>
<rect fill="#7ac143" height="30.125" width="59" y="1039.6" x="329" style="fill:rgb(122, 193, 67);;animation:none"></rect>
<rect fill="#00a78e" height="30.125" width="146" y="1039.6" x="387" style="fill:rgb(0, 167, 142);;animation:none"></rect>
<rect fill="#00bce4" height="30.125" width="79" y="1039.6" x="532" style="fill:rgb(0, 188, 228);;animation:none"></rect>
<rect fill="#7d3f98" height="30.125" width="139" y="1039.6" x="611" style="fill:rgb(125, 63, 152);;animation:none"></rect>
<rect fill="#d20962" height="30.125" width="147" y="1067.8" x="0" style="fill:rgb(210, 9, 98);;animation:none"></rect>
<rect fill="#f47721" height="30.125" width="86" y="1067.8" x="146" style="fill:rgb(244, 119, 33);;animation:none"></rect>
<rect fill="#7ac143" height="30.125" width="171" y="1067.8" x="232" style="fill:rgb(122, 193, 67);;animation:none"></rect>
<rect fill="#00a78e" height="30.125" width="117" y="1067.8" x="402" style="fill:rgb(0, 167, 142);;animation:none"></rect>
<rect fill="#00bce4" height="30.125" width="31" y="1067.8" x="519" style="fill:rgb(0, 188, 228);;animation:none"></rect>
<rect fill="#7d3f98" height="30.125" width="201" y="1067.8" x="549" style="fill:rgb(125, 63, 152);;animation:none"></rect>
<rect fill="#d20962" height="30.125" width="149" y="1095.9" x="0" style="fill:rgb(210, 9, 98);;animation:none"></rect>
<rect fill="#f47721" height="30.125" width="124" y="1095.9" x="148" style="fill:rgb(244, 119, 33);;animation:none"></rect>
<rect fill="#7ac143" height="30.125" width="194" y="1095.9" x="272" style="fill:rgb(122, 193, 67);;animation:none"></rect>
<rect fill="#00a78e" height="30.125" width="149" y="1095.9" x="465" style="fill:rgb(0, 167, 142);;animation:none"></rect>
<rect fill="#00bce4" height="30.125" width="32" y="1095.9" x="613" style="fill:rgb(0, 188, 228);;animation:none"></rect>
<rect fill="#7d3f98" height="30.125" width="106" y="1095.9" x="644" style="fill:rgb(125, 63, 152);;animation:none"></rect>
<g></g></g><!-- [ldio] generated by https://loading.io --></svg>