<svg xmlns="http://www.w3.org/2000/svg" viewBox="0 0 750 1125" preserveAspectRatio="xMidYMid" width="750" height="1125" xmlns:xlink="http://www.w3.org/1999/xlink" style="shape-rendering:auto;display:block;background-position-x:0%;background-position-y:0%;background-size:auto;background-origin:padding-box;background-clip:border-box;background:scroll rgb(25, 28, 49) none  repeat;width:750px;height:1125px;;animation:none"><g><defs><radialGradient id="lg1-7pur31q6qlw"><stop stop-opacity="1" stop-color="#ffed1a" offset="0.9"></stop>


<stop stop-opacity="0" stop-color="#ffed1a" offset="1"></stop></radialGradient>


<radialGradient id="lg2-pbjtwvi3dy"><stop stop-opacity="1" stop-color="#ffdb64" offset="0.75"></stop>


<stop stop-opacity="0" stop-color="#ffdb64" offset="1"></stop></radialGradient>


<radialGradient id="lg3-icucquu1xwb"><stop stop-opacity="1" stop-color="#ffd898" offset="0.4"></stop>


<stop stop-opacity="0" stop-color="#ffd898" offset="1"></stop></radialGradient>


<radialGradient id="lgbk-y11dzcao5e"><stop stop-opacity="0" stop-color="#000" offset="0"></stop>


<stop stop-opacity="0.3" stop-color="#000" offset="1"></stop></radialGradient></defs>
<rect fill="url(#lgbk-y11dzcao5e)" height="1125" width="750" y="0" x="0" style="fill:url('#lgbk-y11dzcao5e');;animation:none"></rect>
<circle opacity="0.9436690504725386" fill="url(#lg1-7pur31q6qlw)" r="6.443458131860806" transform="matrix(1,0,0,1,0,142.9302978515625)" cy="0" cx="370.411109162335" style="filter:hue-rotate(-91deg);fill:url('#lg1-7pur31q6qlw');transform:matrix(1, 0, 0, 1, 0, 142.93);opacity:0.943669;;animation:none"></circle>
<circle opacity="0.9152536482198816" fill="url(#lg1-7pur31q6qlw)" r="22.154373580916214" transform="matrix(1,0,0,1,0,121.142578125)" cy="0" cx="350.2806830191891" style="filter:hue-rotate(-79deg);fill:url('#lg1-7pur31q6qlw');transform:matrix(1, 0, 0, 1, 0, 121.143);opacity:0.915254;;animation:none"></circle>
<circle opacity="0.8665380840511026" fill="url(#lg1-7pur31q6qlw)" r="22.701425164783274" transform="matrix(1,0,0,1,0,1080.8902587890625)" cy="0" cx="201.1144604624639" style="filter:hue-rotate(93deg);fill:url('#lg1-7pur31q6qlw');transform:matrix(1, 0, 0, 1, 0, 1080.89);opacity:0.866538;;animation:none"></circle>
<circle opacity="0.9955865532027319" fill="url(#lg1-7pur31q6qlw)" r="22.237242242674252" transform="matrix(1,0,0,1,0,177.0079345703125)" cy="0" cx="361.52629131240457" style="filter:hue-rotate(-5deg);fill:url('#lg1-7pur31q6qlw');transform:matrix(1, 0, 0, 1, 0, 177.008);opacity:0.995587;;animation:none"></circle>
<circle opacity="0.28367701503901865" fill="url(#lg3-icucquu1xwb)" r="55.03595533370053" transform="matrix(1,0,0,1,0,271.86041259765625)" cy="0" cx="71.1967396641787" style="filter:hue-rotate(50deg);fill:url('#lg3-icucquu1xwb');transform:matrix(1, 0, 0, 1, 0, 271.86);opacity:0.283677;;animation:none"></circle>
<circle opacity="0.9908931114600443" fill="url(#lg1-7pur31q6qlw)" r="14.073901145100693" transform="matrix(1,0,0,1,0,691.7885131835938)" cy="0" cx="495.34511313764943" style="filter:hue-rotate(-122deg);fill:url('#lg1-7pur31q6qlw');transform:matrix(1, 0, 0, 1, 0, 691.789);opacity:0.990893;;animation:none"></circle>
<circle opacity="0.9775037758236721" fill="url(#lg1-7pur31q6qlw)" r="18.846815131360888" transform="matrix(1,0,0,1,0,30.302734375)" cy="0" cx="16.486571199545207" style="filter:hue-rotate(-96deg);fill:url('#lg1-7pur31q6qlw');transform:matrix(1, 0, 0, 1, 0, 30.3027);opacity:0.977504;;animation:none"></circle>
<circle opacity="0.9506802648262799" fill="url(#lg1-7pur31q6qlw)" r="27.227006254583507" transform="matrix(1,0,0,1,0,938.4512939453125)" cy="0" cx="656.2018524528983" style="filter:hue-rotate(-40deg);fill:url('#lg1-7pur31q6qlw');transform:matrix(1, 0, 0, 1, 0, 938.451);opacity:0.95068;;animation:none"></circle>
<circle opacity="0.42347970153609876" fill="url(#lg2-pbjtwvi3dy)" r="46.4427093087161" transform="matrix(1,0,0,1,0,179.0943603515625)" cy="0" cx="113.80757058580056" style="filter:hue-rotate(131deg);fill:url('#lg2-pbjtwvi3dy');transform:matrix(1, 0, 0, 1, 0, 179.094);opacity:0.42348;;animation:none"></circle>
<circle opacity="0.43103431871444786" fill="url(#lg2-pbjtwvi3dy)" r="25.577096993275276" transform="matrix(1,0,0,1,0,833.7318115234375)" cy="0" cx="504.2585176649854" style="filter:hue-rotate(-35deg);fill:url('#lg2-pbjtwvi3dy');transform:matrix(1, 0, 0, 1, 0, 833.732);opacity:0.431034;;animation:none"></circle>
<circle opacity="0.46836167000823525" fill="url(#lg2-pbjtwvi3dy)" r="48.3394122689308" transform="matrix(1,0,0,1,0,213.242431640625)" cy="0" cx="320.5638606503885" style="filter:hue-rotate(-5deg);fill:url('#lg2-pbjtwvi3dy');transform:matrix(1, 0, 0, 1, 0, 213.242);opacity:0.468362;;animation:none"></circle>
<circle opacity="0.864455744236812" fill="url(#lg1-7pur31q6qlw)" r="8.025768827940482" transform="matrix(1,0,0,1,0,429.6932373046875)" cy="0" cx="295.60981240951287" style="filter:hue-rotate(-92deg);fill:url('#lg1-7pur31q6qlw');transform:matrix(1, 0, 0, 1, 0, 429.693);opacity:0.864456;;animation:none"></circle>
<circle opacity="0.46623555091097496" fill="url(#lg2-pbjtwvi3dy)" r="74.32316776019769" transform="matrix(1,0,0,1,0,437.68341064453125)" cy="0" cx="478.21185900836" style="filter:hue-rotate(-92deg);fill:url('#lg2-pbjtwvi3dy');transform:matrix(1, 0, 0, 1, 0, 437.683);opacity:0.466236;;animation:none"></circle>
<circle opacity="0.2958217538131443" fill="url(#lg3-icucquu1xwb)" r="56.32489751832733" transform="matrix(1,0,0,1,0,88.3482666015625)" cy="0" cx="279.44299329617" style="filter:hue-rotate(34deg);fill:url('#lg3-icucquu1xwb');transform:matrix(1, 0, 0, 1, 0, 88.3483);opacity:0.295822;;animation:none"></circle>
<circle opacity="0.47050748242292506" fill="url(#lg2-pbjtwvi3dy)" r="53.8248481706883" transform="matrix(1,0,0,1,0,24.104248046875)" cy="0" cx="181.84725706818534" style="filter:hue-rotate(-10deg);fill:url('#lg2-pbjtwvi3dy');transform:matrix(1, 0, 0, 1, 0, 24.1042);opacity:0.470507;;animation:none"></circle>
<circle opacity="0.9776423424784919" fill="url(#lg1-7pur31q6qlw)" r="11.767675099595547" transform="matrix(1,0,0,1,0,268.4522705078125)" cy="0" cx="569.026990288276" style="filter:hue-rotate(-66deg);fill:url('#lg1-7pur31q6qlw');transform:matrix(1, 0, 0, 1, 0, 268.452);opacity:0.977642;;animation:none"></circle>
<circle opacity="0.8005096901115725" fill="url(#lg1-7pur31q6qlw)" r="16.54773675959416" transform="matrix(1,0,0,1,0,151.91571044921875)" cy="0" cx="55.540479875079455" style="filter:hue-rotate(57deg);fill:url('#lg1-7pur31q6qlw');transform:matrix(1, 0, 0, 1, 0, 151.916);opacity:0.80051;;animation:none"></circle>
<circle opacity="0.9372193468964082" fill="url(#lg1-7pur31q6qlw)" r="13.699558031597752" transform="matrix(1,0,0,1,0,690.5126342773438)" cy="0" cx="339.0329825779973" style="filter:hue-rotate(59deg);fill:url('#lg1-7pur31q6qlw');transform:matrix(1, 0, 0, 1, 0, 690.513);opacity:0.937219;;animation:none"></circle>
<circle opacity="0.9522268409674105" fill="url(#lg1-7pur31q6qlw)" r="18.223343740572762" transform="matrix(1,0,0,1,0,1071.266357421875)" cy="0" cx="651.6771242293264" style="filter:hue-rotate(-137deg);fill:url('#lg1-7pur31q6qlw');transform:matrix(1, 0, 0, 1, 0, 1071.27);opacity:0.952227;;animation:none"></circle>
<circle opacity="0.4149785967578565" fill="url(#lg2-pbjtwvi3dy)" r="73.60044586925527" transform="matrix(1,0,0,1,0,1103.9691162109375)" cy="0" cx="321.04101630213427" style="filter:hue-rotate(32deg);fill:url('#lg2-pbjtwvi3dy');transform:matrix(1, 0, 0, 1, 0, 1103.97);opacity:0.414979;;animation:none"></circle>
<circle opacity="0.2719101404723159" fill="url(#lg3-icucquu1xwb)" r="94.5310390966736" transform="matrix(1,0,0,1,0,-83.068359375)" cy="0" cx="95.0920063273459" style="filter:hue-rotate(138deg);fill:url('#lg3-icucquu1xwb');transform:matrix(1, 0, 0, 1, 0, -83.0684);opacity:0.27191;;animation:none"></circle>
<circle opacity="0.287218510389399" fill="url(#lg3-icucquu1xwb)" r="94.30765086110358" transform="matrix(1,0,0,1,0,190.4039306640625)" cy="0" cx="348.4139767047239" style="filter:hue-rotate(-124deg);fill:url('#lg3-icucquu1xwb');transform:matrix(1, 0, 0, 1, 0, 190.404);opacity:0.287219;;animation:none"></circle>
<circle opacity="0.29171927966920136" fill="url(#lg3-icucquu1xwb)" r="151.55586552083383" transform="matrix(1,0,0,1,0,113.2899169921875)" cy="0" cx="694.6129826472072" style="filter:hue-rotate(-75deg);fill:url('#lg3-icucquu1xwb');transform:matrix(1, 0, 0, 1, 0, 113.29);opacity:0.291719;;animation:none"></circle>
<circle opacity="0.9901155935969134" fill="url(#lg1-7pur31q6qlw)" r="15.287236507298264" transform="matrix(1,0,0,1,0,162.9671630859375)" cy="0" cx="241.11487942435997" style="filter:hue-rotate(86deg);fill:url('#lg1-7pur31q6qlw');transform:matrix(1, 0, 0, 1, 0, 162.967);opacity:0.990116;;animation:none"></circle>
<circle opacity="0.4659553265872089" fill="url(#lg2-pbjtwvi3dy)" r="53.43639927828043" transform="matrix(1,0,0,1,0,602.1235961914062)" cy="0" cx="674.1143752340073" style="filter:hue-rotate(-7deg);fill:url('#lg2-pbjtwvi3dy');transform:matrix(1, 0, 0, 1, 0, 602.124);opacity:0.465955;;animation:none"></circle>
<circle opacity="0.8851558688177372" fill="url(#lg1-7pur31q6qlw)" r="13.158249087370768" transform="matrix(1,0,0,1,0,819.2922973632812)" cy="0" cx="481.15841786491575" style="filter:hue-rotate(25deg);fill:url('#lg1-7pur31q6qlw');transform:matrix(1, 0, 0, 1, 0, 819.292);opacity:0.885156;;animation:none"></circle>
<circle opacity="0.9713382093669969" fill="url(#lg1-7pur31q6qlw)" r="5.70628502874915" transform="matrix(1,0,0,1,0,657.2547607421875)" cy="0" cx="661.2109702012642" style="filter:hue-rotate(-5deg);fill:url('#lg1-7pur31q6qlw');transform:matrix(1, 0, 0, 1, 0, 657.255);opacity:0.971338;;animation:none"></circle>
<circle opacity="0.41009244038541526" fill="url(#lg2-pbjtwvi3dy)" r="66.10374725019717" transform="matrix(1,0,0,1,0,103.734619140625)" cy="0" cx="588.9299566659279" style="filter:hue-rotate(129deg);fill:url('#lg2-pbjtwvi3dy');transform:matrix(1, 0, 0, 1, 0, 103.735);opacity:0.410092;;animation:none"></circle>
<circle opacity="0.829613772164031" fill="url(#lg1-7pur31q6qlw)" r="15.029944460327464" transform="matrix(1,0,0,1,0,631.7901000976562)" cy="0" cx="50.32346874401716" style="filter:hue-rotate(-53deg);fill:url('#lg1-7pur31q6qlw');transform:matrix(1, 0, 0, 1, 0, 631.79);opacity:0.829614;;animation:none"></circle>
<circle opacity="0.9417790883382668" fill="url(#lg1-7pur31q6qlw)" r="16.174826978353813" transform="matrix(1,0,0,1,0,920.030029296875)" cy="0" cx="285.5010669137112" style="filter:hue-rotate(99deg);fill:url('#lg1-7pur31q6qlw');transform:matrix(1, 0, 0, 1, 0, 920.03);opacity:0.941779;;animation:none"></circle>
<circle opacity="0.827322799121841" fill="url(#lg1-7pur31q6qlw)" r="20.811033552959593" transform="matrix(1,0,0,1,0,-14.19287109375)" cy="0" cx="582.9226886577461" style="filter:hue-rotate(-128deg);fill:url('#lg1-7pur31q6qlw');transform:matrix(1, 0, 0, 1, 0, -14.1929);opacity:0.827323;;animation:none"></circle>
<circle opacity="0.41719368101591164" fill="url(#lg2-pbjtwvi3dy)" r="65.40334499596169" transform="matrix(1,0,0,1,0,852.6033935546875)" cy="0" cx="324.0405299674804" style="filter:hue-rotate(-50deg);fill:url('#lg2-pbjtwvi3dy');transform:matrix(1, 0, 0, 1, 0, 852.603);opacity:0.417194;;animation:none"></circle>
<circle opacity="0.8695470146083978" fill="url(#lg1-7pur31q6qlw)" r="18.067526668271952" transform="matrix(1,0,0,1,0,1005.722900390625)" cy="0" cx="216.19372561084273" style="filter:hue-rotate(-50deg);fill:url('#lg1-7pur31q6qlw');transform:matrix(1, 0, 0, 1, 0, 1005.72);opacity:0.869547;;animation:none"></circle>
<circle opacity="0.4667673323081879" fill="url(#lg2-pbjtwvi3dy)" r="49.76843643267338" transform="matrix(1,0,0,1,0,545.7357177734375)" cy="0" cx="400.475241866964" style="filter:hue-rotate(124deg);fill:url('#lg2-pbjtwvi3dy');transform:matrix(1, 0, 0, 1, 0, 545.736);opacity:0.466767;;animation:none"></circle>
<circle opacity="0.4552955406667182" fill="url(#lg2-pbjtwvi3dy)" r="28.127861022483394" transform="matrix(1,0,0,1,0,121.4664306640625)" cy="0" cx="255.46045803138236" style="filter:hue-rotate(-122deg);fill:url('#lg2-pbjtwvi3dy');transform:matrix(1, 0, 0, 1, 0, 121.466);opacity:0.455296;;animation:none"></circle>
<circle opacity="0.41758692199138786" fill="url(#lg2-pbjtwvi3dy)" r="30.193389607409497" transform="matrix(1,0,0,1,0,386.654052734375)" cy="0" cx="283.31929000577827" style="filter:hue-rotate(91deg);fill:url('#lg2-pbjtwvi3dy');transform:matrix(1, 0, 0, 1, 0, 386.654);opacity:0.417587;;animation:none"></circle>
<circle opacity="0.313908387193225" fill="url(#lg3-icucquu1xwb)" r="55.44341056845104" transform="matrix(1,0,0,1,0,53.0020751953125)" cy="0" cx="516.2160523227983" style="filter:hue-rotate(-39deg);fill:url('#lg3-icucquu1xwb');transform:matrix(1, 0, 0, 1, 0, 53.0021);opacity:0.313908;;animation:none"></circle>
<circle opacity="0.8872221308139745" fill="url(#lg1-7pur31q6qlw)" r="13.014792361813761" transform="matrix(1,0,0,1,0,554.8623657226562)" cy="0" cx="550.0715894505698" style="filter:hue-rotate(-79deg);fill:url('#lg1-7pur31q6qlw');transform:matrix(1, 0, 0, 1, 0, 554.862);opacity:0.887222;;animation:none"></circle>
<circle opacity="0.8760282226955396" fill="url(#lg1-7pur31q6qlw)" r="18.891394075941328" transform="matrix(1,0,0,1,0,1032.684326171875)" cy="0" cx="359.72049514811056" style="filter:hue-rotate(87deg);fill:url('#lg1-7pur31q6qlw');transform:matrix(1, 0, 0, 1, 0, 1032.68);opacity:0.876028;;animation:none"></circle>
<circle opacity="0.8290768861498709" fill="url(#lg1-7pur31q6qlw)" r="12.90342795710204" transform="matrix(1,0,0,1,0,559.580322265625)" cy="0" cx="11.053411115737449" style="filter:hue-rotate(-112deg);fill:url('#lg1-7pur31q6qlw');transform:matrix(1, 0, 0, 1, 0, 559.58);opacity:0.829077;;animation:none"></circle>
<circle opacity="0.8122161915593428" fill="url(#lg1-7pur31q6qlw)" r="14.887730485033352" transform="matrix(1,0,0,1,0,525.7378540039062)" cy="0" cx="287.0947434980469" style="filter:hue-rotate(-131deg);fill:url('#lg1-7pur31q6qlw');transform:matrix(1, 0, 0, 1, 0, 525.738);opacity:0.812216;;animation:none"></circle>
<circle opacity="0.4423440238228393" fill="url(#lg2-pbjtwvi3dy)" r="40.94552822626475" transform="matrix(1,0,0,1,0,736.6355590820312)" cy="0" cx="350.06690101683074" style="filter:hue-rotate(126deg);fill:url('#lg2-pbjtwvi3dy');transform:matrix(1, 0, 0, 1, 0, 736.636);opacity:0.442344;;animation:none"></circle>
<circle opacity="0.4505882626583247" fill="url(#lg2-pbjtwvi3dy)" r="44.61231630547137" transform="matrix(1,0,0,1,0,607.900146484375)" cy="0" cx="304.0299306086173" style="filter:hue-rotate(-61deg);fill:url('#lg2-pbjtwvi3dy');transform:matrix(1, 0, 0, 1, 0, 607.9);opacity:0.450588;;animation:none"></circle>
<circle opacity="0.8631958483261846" fill="url(#lg1-7pur31q6qlw)" r="13.956579099381262" transform="matrix(1,0,0,1,0,71.027099609375)" cy="0" cx="284.47704802140123" style="filter:hue-rotate(-35deg);fill:url('#lg1-7pur31q6qlw');transform:matrix(1, 0, 0, 1, 0, 71.0271);opacity:0.863196;;animation:none"></circle>
<circle opacity="0.9186962858791279" fill="url(#lg1-7pur31q6qlw)" r="13.888597505056737" transform="matrix(1,0,0,1,0,195.1319580078125)" cy="0" cx="82.20142000455454" style="filter:hue-rotate(-119deg);fill:url('#lg1-7pur31q6qlw');transform:matrix(1, 0, 0, 1, 0, 195.132);opacity:0.918696;;animation:none"></circle>
<circle opacity="0.4307035960088692" fill="url(#lg2-pbjtwvi3dy)" r="50.30148954010172" transform="matrix(1,0,0,1,0,556.9811401367188)" cy="0" cx="327.5756590697256" style="filter:hue-rotate(-81deg);fill:url('#lg2-pbjtwvi3dy');transform:matrix(1, 0, 0, 1, 0, 556.981);opacity:0.430704;;animation:none"></circle>
<circle opacity="0.9886173794084525" fill="url(#lg1-7pur31q6qlw)" r="9.433641560188397" transform="matrix(1,0,0,1,0,156.74652099609375)" cy="0" cx="123.28914588015896" style="filter:hue-rotate(-7deg);fill:url('#lg1-7pur31q6qlw');transform:matrix(1, 0, 0, 1, 0, 156.747);opacity:0.988617;;animation:none"></circle>
<circle opacity="0.27547492341194096" fill="url(#lg3-icucquu1xwb)" r="52.58420303510923" transform="matrix(1,0,0,1,0,1133.796875)" cy="0" cx="272.07616887911377" style="filter:hue-rotate(-7deg);fill:url('#lg3-icucquu1xwb');transform:matrix(1, 0, 0, 1, 0, 1133.8);opacity:0.275475;;animation:none"></circle>
<circle opacity="0.9442315952181783" fill="url(#lg1-7pur31q6qlw)" r="17.525980810164686" transform="matrix(1,0,0,1,0,377.5245361328125)" cy="0" cx="195.93760787722977" style="filter:hue-rotate(3deg);fill:url('#lg1-7pur31q6qlw');transform:matrix(1, 0, 0, 1, 0, 377.525);opacity:0.944232;;animation:none"></circle>
<circle opacity="0.43879947293832017" fill="url(#lg2-pbjtwvi3dy)" r="35.22520302547009" transform="matrix(1,0,0,1,0,245.0810546875)" cy="0" cx="516.905783855631" style="filter:hue-rotate(60deg);fill:url('#lg2-pbjtwvi3dy');transform:matrix(1, 0, 0, 1, 0, 245.081);opacity:0.438799;;animation:none"></circle>
<circle opacity="0.8193889956191528" fill="url(#lg1-7pur31q6qlw)" r="13.358729010315567" transform="matrix(1,0,0,1,0,492.68206787109375)" cy="0" cx="593.2351915674436" style="filter:hue-rotate(39deg);fill:url('#lg1-7pur31q6qlw');transform:matrix(1, 0, 0, 1, 0, 492.682);opacity:0.819389;;animation:none"></circle>
<circle opacity="0.4547091128405536" fill="url(#lg2-pbjtwvi3dy)" r="26.849987924561294" transform="matrix(1,0,0,1,0,124.1912841796875)" cy="0" cx="150.3064249605203" style="filter:hue-rotate(64deg);fill:url('#lg2-pbjtwvi3dy');transform:matrix(1, 0, 0, 1, 0, 124.191);opacity:0.454709;;animation:none"></circle>
<circle opacity="0.40831520277814276" fill="url(#lg2-pbjtwvi3dy)" r="55.557681349406785" transform="matrix(1,0,0,1,0,176.4241943359375)" cy="0" cx="519.5062088878244" style="filter:hue-rotate(-85deg);fill:url('#lg2-pbjtwvi3dy');transform:matrix(1, 0, 0, 1, 0, 176.424);opacity:0.408315;;animation:none"></circle>
<circle opacity="0.4286759245718615" fill="url(#lg2-pbjtwvi3dy)" r="69.11282555601255" transform="matrix(1,0,0,1,0,46.83642578125)" cy="0" cx="477.69352267875274" style="filter:hue-rotate(17deg);fill:url('#lg2-pbjtwvi3dy');transform:matrix(1, 0, 0, 1, 0, 46.8364);opacity:0.428676;;animation:none"></circle>
<circle opacity="0.9084356111359766" fill="url(#lg1-7pur31q6qlw)" r="17.798616966621577" transform="matrix(1,0,0,1,0,802.8651123046875)" cy="0" cx="374.20654806465507" style="filter:hue-rotate(-55deg);fill:url('#lg1-7pur31q6qlw');transform:matrix(1, 0, 0, 1, 0, 802.865);opacity:0.908436;;animation:none"></circle>
<circle opacity="0.8932213838480452" fill="url(#lg1-7pur31q6qlw)" r="22.81733152332376" transform="matrix(1,0,0,1,0,127.63092041015625)" cy="0" cx="182.53260783259168" style="filter:hue-rotate(5deg);fill:url('#lg1-7pur31q6qlw');transform:matrix(1, 0, 0, 1, 0, 127.631);opacity:0.893221;;animation:none"></circle>
<circle opacity="0.45780483208981504" fill="url(#lg2-pbjtwvi3dy)" r="42.193502447067395" transform="matrix(1,0,0,1,0,414.04803466796875)" cy="0" cx="113.4352866301936" style="filter:hue-rotate(40deg);fill:url('#lg2-pbjtwvi3dy');transform:matrix(1, 0, 0, 1, 0, 414.048);opacity:0.457805;;animation:none"></circle>
<circle opacity="0.4133904501795771" fill="url(#lg2-pbjtwvi3dy)" r="53.4884251113304" transform="matrix(1,0,0,1,0,212.15753173828125)" cy="0" cx="438.71539714294494" style="filter:hue-rotate(105deg);fill:url('#lg2-pbjtwvi3dy');transform:matrix(1, 0, 0, 1, 0, 212.158);opacity:0.41339;;animation:none"></circle>
<circle opacity="0.8084296821125052" fill="url(#lg1-7pur31q6qlw)" r="24.245744855062323" transform="matrix(1,0,0,1,0,323.8050537109375)" cy="0" cx="723.9072771188578" style="filter:hue-rotate(-68deg);fill:url('#lg1-7pur31q6qlw');transform:matrix(1, 0, 0, 1, 0, 323.805);opacity:0.80843;;animation:none"></circle>
<circle opacity="0.445427735666614" fill="url(#lg2-pbjtwvi3dy)" r="65.6735885280525" transform="matrix(1,0,0,1,0,824.93359375)" cy="0" cx="340.73754272697767" style="filter:hue-rotate(24deg);fill:url('#lg2-pbjtwvi3dy');transform:matrix(1, 0, 0, 1, 0, 824.934);opacity:0.445428;;animation:none"></circle>
<circle opacity="0.4564470327842231" fill="url(#lg2-pbjtwvi3dy)" r="65.44890498261432" transform="matrix(1,0,0,1,0,741.4576416015625)" cy="0" cx="453.76714228091106" style="filter:hue-rotate(-75deg);fill:url('#lg2-pbjtwvi3dy');transform:matrix(1, 0, 0, 1, 0, 741.458);opacity:0.456447;;animation:none"></circle>
<circle opacity="0.9883320883778319" fill="url(#lg1-7pur31q6qlw)" r="8.52396173613489" transform="matrix(1,0,0,1,0,477.114990234375)" cy="0" cx="677.2671930037245" style="filter:hue-rotate(-80deg);fill:url('#lg1-7pur31q6qlw');transform:matrix(1, 0, 0, 1, 0, 477.115);opacity:0.988332;;animation:none"></circle>
<circle opacity="0.9361351572662854" fill="url(#lg1-7pur31q6qlw)" r="11.370847827255375" transform="matrix(1,0,0,1,0,1057.847900390625)" cy="0" cx="736.179549927184" style="filter:hue-rotate(67deg);fill:url('#lg1-7pur31q6qlw');transform:matrix(1, 0, 0, 1, 0, 1057.85);opacity:0.936135;;animation:none"></circle>
<circle opacity="0.2709667913342155" fill="url(#lg3-icucquu1xwb)" r="52.914052686038886" transform="matrix(1,0,0,1,0,1120.416015625)" cy="0" cx="14.585149520092559" style="filter:hue-rotate(58deg);fill:url('#lg3-icucquu1xwb');transform:matrix(1, 0, 0, 1, 0, 1120.42);opacity:0.270967;;animation:none"></circle>
<circle opacity="0.4112914525061707" fill="url(#lg2-pbjtwvi3dy)" r="45.03574906489299" transform="matrix(1,0,0,1,0,129.4412841796875)" cy="0" cx="535.1917335886525" style="filter:hue-rotate(31deg);fill:url('#lg2-pbjtwvi3dy');transform:matrix(1, 0, 0, 1, 0, 129.441);opacity:0.411291;;animation:none"></circle>
<circle opacity="0.2900467689535979" fill="url(#lg3-icucquu1xwb)" r="60.37188514173909" transform="matrix(1,0,0,1,0,664.23828125)" cy="0" cx="155.3268193034484" style="filter:hue-rotate(-10deg);fill:url('#lg3-icucquu1xwb');transform:matrix(1, 0, 0, 1, 0, 664.238);opacity:0.290047;;animation:none"></circle>
<circle opacity="0.4707430360913334" fill="url(#lg2-pbjtwvi3dy)" r="42.08446982604008" transform="matrix(1,0,0,1,0,522.631103515625)" cy="0" cx="403.5213934594002" style="filter:hue-rotate(81deg);fill:url('#lg2-pbjtwvi3dy');transform:matrix(1, 0, 0, 1, 0, 522.631);opacity:0.470743;;animation:none"></circle>
<circle opacity="0.4742670785951386" fill="url(#lg2-pbjtwvi3dy)" r="43.80004240038842" transform="matrix(1,0,0,1,0,38.2266845703125)" cy="0" cx="349.70602298432664" style="filter:hue-rotate(-26deg);fill:url('#lg2-pbjtwvi3dy');transform:matrix(1, 0, 0, 1, 0, 38.2267);opacity:0.474267;;animation:none"></circle>
<circle opacity="0.855011636254625" fill="url(#lg1-7pur31q6qlw)" r="18.52151094014863" transform="matrix(1,0,0,1,0,1107.396484375)" cy="0" cx="656.4073345501677" style="filter:hue-rotate(-88deg);fill:url('#lg1-7pur31q6qlw');transform:matrix(1, 0, 0, 1, 0, 1107.4);opacity:0.855012;;animation:none"></circle>
<circle opacity="0.28055261460023545" fill="url(#lg3-icucquu1xwb)" r="142.7260125049632" transform="matrix(1,0,0,1,0,1119.29296875)" cy="0" cx="708.7184177735747" style="filter:hue-rotate(44deg);fill:url('#lg3-icucquu1xwb');transform:matrix(1, 0, 0, 1, 0, 1119.29);opacity:0.280553;;animation:none"></circle>
<circle opacity="0.4842819505402681" fill="url(#lg2-pbjtwvi3dy)" r="31.93944871478778" transform="matrix(1,0,0,1,0,221.51708984375)" cy="0" cx="570.5287040324347" style="filter:hue-rotate(-38deg);fill:url('#lg2-pbjtwvi3dy');transform:matrix(1, 0, 0, 1, 0, 221.517);opacity:0.484282;;animation:none"></circle>
<circle opacity="0.8293240166995218" fill="url(#lg1-7pur31q6qlw)" r="16.57153720753627" transform="matrix(1,0,0,1,0,616.39892578125)" cy="0" cx="481.11505706756657" style="filter:hue-rotate(95deg);fill:url('#lg1-7pur31q6qlw');transform:matrix(1, 0, 0, 1, 0, 616.399);opacity:0.829324;;animation:none"></circle>
<circle opacity="0.29199315787910235" fill="url(#lg3-icucquu1xwb)" r="50.25610842349336" transform="matrix(1,0,0,1,0,831.7705078125)" cy="0" cx="117.64432735891742" style="filter:hue-rotate(-20deg);fill:url('#lg3-icucquu1xwb');transform:matrix(1, 0, 0, 1, 0, 831.771);opacity:0.291993;;animation:none"></circle>
<circle opacity="0.8797585495047686" fill="url(#lg1-7pur31q6qlw)" r="15.694356173202129" transform="matrix(1,0,0,1,0,971.2608032226562)" cy="0" cx="299.88047660430993" style="filter:hue-rotate(114deg);fill:url('#lg1-7pur31q6qlw');transform:matrix(1, 0, 0, 1, 0, 971.261);opacity:0.879759;;animation:none"></circle>
<circle opacity="0.8336893064114104" fill="url(#lg1-7pur31q6qlw)" r="14.400482724413619" transform="matrix(1,0,0,1,0,480.3004150390625)" cy="0" cx="244.91693628964836" style="filter:hue-rotate(-1deg);fill:url('#lg1-7pur31q6qlw');transform:matrix(1, 0, 0, 1, 0, 480.3);opacity:0.833689;;animation:none"></circle>
<g></g></g><!-- [ldio] generated by https://loading.io --></svg>