<svg xmlns="http://www.w3.org/2000/svg" viewBox="0 0 750 1125" preserveAspectRatio="xMidYMid" width="750" height="1125" xmlns:xlink="http://www.w3.org/1999/xlink" style="shape-rendering:auto;display:block;background-position-x:0%;background-position-y:0%;background-size:auto;background-origin:padding-box;background-clip:border-box;background:scroll rgb(255, 255, 255) none  repeat;width:750px;height:1125px;;animation:none"><g><defs><linearGradient y2="1" y1="0" x2="0" x1="0" id="lg-0.6780650246356913"><stop offset="0.3" stop-color="#5a0029"></stop>

  
<stop offset="0.6499999999999999" stop-color="#350033"></stop>

  
<stop offset="1" stop-color="#350033"></stop></linearGradient>


<linearGradient y2="1" y1="0" x2="0" x1="0" id="fg-lg-0.6780650246356913"><stop offset="0.3" stop-opacity="1" stop-color="#5a0029"></stop>

  
<stop offset="0.6499999999999999" stop-opacity="0.66" stop-color="#350033"></stop>

  
<stop offset="1" stop-opacity="0" stop-color="#350033"></stop></linearGradient>


<style type="text/css">path { fill: none; stroke: #00ffff; stroke-width: 3px }</style></defs>


<rect fill="url(#lg-0.6780650246356913)" height="1125" width="750" y="0" x="0" style="fill:url('#lg-0.6780650246356913');;animation:none"></rect>
<path d="M0 337.5 L-5250 1125" style="fill:none;stroke:rgb(0, 255, 255);;animation:none"></path>
<path d="M7.5 337.5 L-5137.5 1125" style="fill:none;stroke:rgb(0, 255, 255);;animation:none"></path>
<path d="M15 337.5 L-5025 1125" style="fill:none;stroke:rgb(0, 255, 255);;animation:none"></path>
<path d="M22.5 337.5 L-4912.5 1125" style="fill:none;stroke:rgb(0, 255, 255);;animation:none"></path>
<path d="M30 337.5 L-4800 1125" style="fill:none;stroke:rgb(0, 255, 255);;animation:none"></path>
<path d="M37.5 337.5 L-4687.5 1125" style="fill:none;stroke:rgb(0, 255, 255);;animation:none"></path>
<path d="M45 337.5 L-4575 1125" style="fill:none;stroke:rgb(0, 255, 255);;animation:none"></path>
<path d="M52.5 337.5 L-4462.5 1125" style="fill:none;stroke:rgb(0, 255, 255);;animation:none"></path>
<path d="M60 337.5 L-4350 1125" style="fill:none;stroke:rgb(0, 255, 255);;animation:none"></path>
<path d="M67.5 337.5 L-4237.5 1125" style="fill:none;stroke:rgb(0, 255, 255);;animation:none"></path>
<path d="M75 337.5 L-4125 1125" style="fill:none;stroke:rgb(0, 255, 255);;animation:none"></path>
<path d="M82.5 337.5 L-4012.5 1125" style="fill:none;stroke:rgb(0, 255, 255);;animation:none"></path>
<path d="M90 337.5 L-3900 1125" style="fill:none;stroke:rgb(0, 255, 255);;animation:none"></path>
<path d="M97.5 337.5 L-3787.5 1125" style="fill:none;stroke:rgb(0, 255, 255);;animation:none"></path>
<path d="M105 337.5 L-3675 1125" style="fill:none;stroke:rgb(0, 255, 255);;animation:none"></path>
<path d="M112.5 337.5 L-3562.5 1125" style="fill:none;stroke:rgb(0, 255, 255);;animation:none"></path>
<path d="M120 337.5 L-3450 1125" style="fill:none;stroke:rgb(0, 255, 255);;animation:none"></path>
<path d="M127.5 337.5 L-3337.5 1125" style="fill:none;stroke:rgb(0, 255, 255);;animation:none"></path>
<path d="M135 337.5 L-3225 1125" style="fill:none;stroke:rgb(0, 255, 255);;animation:none"></path>
<path d="M142.5 337.5 L-3112.5 1125" style="fill:none;stroke:rgb(0, 255, 255);;animation:none"></path>
<path d="M150 337.5 L-3000 1125" style="fill:none;stroke:rgb(0, 255, 255);;animation:none"></path>
<path d="M157.5 337.5 L-2887.5 1125" style="fill:none;stroke:rgb(0, 255, 255);;animation:none"></path>
<path d="M165 337.5 L-2775 1125" style="fill:none;stroke:rgb(0, 255, 255);;animation:none"></path>
<path d="M172.5 337.5 L-2662.5 1125" style="fill:none;stroke:rgb(0, 255, 255);;animation:none"></path>
<path d="M180 337.5 L-2550 1125" style="fill:none;stroke:rgb(0, 255, 255);;animation:none"></path>
<path d="M187.5 337.5 L-2437.5 1125" style="fill:none;stroke:rgb(0, 255, 255);;animation:none"></path>
<path d="M195 337.5 L-2325 1125" style="fill:none;stroke:rgb(0, 255, 255);;animation:none"></path>
<path d="M202.5 337.5 L-2212.5 1125" style="fill:none;stroke:rgb(0, 255, 255);;animation:none"></path>
<path d="M210 337.5 L-2100 1125" style="fill:none;stroke:rgb(0, 255, 255);;animation:none"></path>
<path d="M217.5 337.5 L-1987.5 1125" style="fill:none;stroke:rgb(0, 255, 255);;animation:none"></path>
<path d="M225 337.5 L-1875 1125" style="fill:none;stroke:rgb(0, 255, 255);;animation:none"></path>
<path d="M232.5 337.5 L-1762.5 1125" style="fill:none;stroke:rgb(0, 255, 255);;animation:none"></path>
<path d="M240 337.5 L-1650 1125" style="fill:none;stroke:rgb(0, 255, 255);;animation:none"></path>
<path d="M247.5 337.5 L-1537.5 1125" style="fill:none;stroke:rgb(0, 255, 255);;animation:none"></path>
<path d="M255 337.5 L-1425 1125" style="fill:none;stroke:rgb(0, 255, 255);;animation:none"></path>
<path d="M262.5 337.5 L-1312.5 1125" style="fill:none;stroke:rgb(0, 255, 255);;animation:none"></path>
<path d="M270 337.5 L-1200 1125" style="fill:none;stroke:rgb(0, 255, 255);;animation:none"></path>
<path d="M277.5 337.5 L-1087.5 1125" style="fill:none;stroke:rgb(0, 255, 255);;animation:none"></path>
<path d="M285 337.5 L-975 1125" style="fill:none;stroke:rgb(0, 255, 255);;animation:none"></path>
<path d="M292.5 337.5 L-862.5 1125" style="fill:none;stroke:rgb(0, 255, 255);;animation:none"></path>
<path d="M300 337.5 L-750 1125" style="fill:none;stroke:rgb(0, 255, 255);;animation:none"></path>
<path d="M307.5 337.5 L-637.5 1125" style="fill:none;stroke:rgb(0, 255, 255);;animation:none"></path>
<path d="M315 337.5 L-525 1125" style="fill:none;stroke:rgb(0, 255, 255);;animation:none"></path>
<path d="M322.5 337.5 L-412.5 1125" style="fill:none;stroke:rgb(0, 255, 255);;animation:none"></path>
<path d="M330 337.5 L-300 1125" style="fill:none;stroke:rgb(0, 255, 255);;animation:none"></path>
<path d="M337.5 337.5 L-187.5 1125" style="fill:none;stroke:rgb(0, 255, 255);;animation:none"></path>
<path d="M345 337.5 L-75 1125" style="fill:none;stroke:rgb(0, 255, 255);;animation:none"></path>
<path d="M352.5 337.5 L37.5 1125" style="fill:none;stroke:rgb(0, 255, 255);;animation:none"></path>
<path d="M360 337.5 L150 1125" style="fill:none;stroke:rgb(0, 255, 255);;animation:none"></path>
<path d="M367.5 337.5 L262.5 1125" style="fill:none;stroke:rgb(0, 255, 255);;animation:none"></path>
<path d="M375 337.5 L375 1125" style="fill:none;stroke:rgb(0, 255, 255);;animation:none"></path>
<path d="M382.5 337.5 L487.5 1125" style="fill:none;stroke:rgb(0, 255, 255);;animation:none"></path>
<path d="M390 337.5 L600 1125" style="fill:none;stroke:rgb(0, 255, 255);;animation:none"></path>
<path d="M397.5 337.5 L712.5 1125" style="fill:none;stroke:rgb(0, 255, 255);;animation:none"></path>
<path d="M405 337.5 L825 1125" style="fill:none;stroke:rgb(0, 255, 255);;animation:none"></path>
<path d="M412.5 337.5 L937.5 1125" style="fill:none;stroke:rgb(0, 255, 255);;animation:none"></path>
<path d="M420 337.5 L1050 1125" style="fill:none;stroke:rgb(0, 255, 255);;animation:none"></path>
<path d="M427.5 337.5 L1162.5 1125" style="fill:none;stroke:rgb(0, 255, 255);;animation:none"></path>
<path d="M435 337.5 L1275 1125" style="fill:none;stroke:rgb(0, 255, 255);;animation:none"></path>
<path d="M442.5 337.5 L1387.5 1125" style="fill:none;stroke:rgb(0, 255, 255);;animation:none"></path>
<path d="M450 337.5 L1500 1125" style="fill:none;stroke:rgb(0, 255, 255);;animation:none"></path>
<path d="M457.5 337.5 L1612.5 1125" style="fill:none;stroke:rgb(0, 255, 255);;animation:none"></path>
<path d="M465 337.5 L1725 1125" style="fill:none;stroke:rgb(0, 255, 255);;animation:none"></path>
<path d="M472.5 337.5 L1837.5 1125" style="fill:none;stroke:rgb(0, 255, 255);;animation:none"></path>
<path d="M480 337.5 L1950 1125" style="fill:none;stroke:rgb(0, 255, 255);;animation:none"></path>
<path d="M487.5 337.5 L2062.5 1125" style="fill:none;stroke:rgb(0, 255, 255);;animation:none"></path>
<path d="M495 337.5 L2175 1125" style="fill:none;stroke:rgb(0, 255, 255);;animation:none"></path>
<path d="M502.5 337.5 L2287.5 1125" style="fill:none;stroke:rgb(0, 255, 255);;animation:none"></path>
<path d="M510 337.5 L2400 1125" style="fill:none;stroke:rgb(0, 255, 255);;animation:none"></path>
<path d="M517.5 337.5 L2512.5 1125" style="fill:none;stroke:rgb(0, 255, 255);;animation:none"></path>
<path d="M525 337.5 L2625 1125" style="fill:none;stroke:rgb(0, 255, 255);;animation:none"></path>
<path d="M532.5 337.5 L2737.5 1125" style="fill:none;stroke:rgb(0, 255, 255);;animation:none"></path>
<path d="M540 337.5 L2850 1125" style="fill:none;stroke:rgb(0, 255, 255);;animation:none"></path>
<path d="M547.5 337.5 L2962.5 1125" style="fill:none;stroke:rgb(0, 255, 255);;animation:none"></path>
<path d="M555 337.5 L3075 1125" style="fill:none;stroke:rgb(0, 255, 255);;animation:none"></path>
<path d="M562.5 337.5 L3187.5 1125" style="fill:none;stroke:rgb(0, 255, 255);;animation:none"></path>
<path d="M570 337.5 L3300 1125" style="fill:none;stroke:rgb(0, 255, 255);;animation:none"></path>
<path d="M577.5 337.5 L3412.5 1125" style="fill:none;stroke:rgb(0, 255, 255);;animation:none"></path>
<path d="M585 337.5 L3525 1125" style="fill:none;stroke:rgb(0, 255, 255);;animation:none"></path>
<path d="M592.5 337.5 L3637.5 1125" style="fill:none;stroke:rgb(0, 255, 255);;animation:none"></path>
<path d="M600 337.5 L3750 1125" style="fill:none;stroke:rgb(0, 255, 255);;animation:none"></path>
<path d="M607.5 337.5 L3862.5 1125" style="fill:none;stroke:rgb(0, 255, 255);;animation:none"></path>
<path d="M615 337.5 L3975 1125" style="fill:none;stroke:rgb(0, 255, 255);;animation:none"></path>
<path d="M622.5 337.5 L4087.5 1125" style="fill:none;stroke:rgb(0, 255, 255);;animation:none"></path>
<path d="M630 337.5 L4200 1125" style="fill:none;stroke:rgb(0, 255, 255);;animation:none"></path>
<path d="M637.5 337.5 L4312.5 1125" style="fill:none;stroke:rgb(0, 255, 255);;animation:none"></path>
<path d="M645 337.5 L4425 1125" style="fill:none;stroke:rgb(0, 255, 255);;animation:none"></path>
<path d="M652.5 337.5 L4537.5 1125" style="fill:none;stroke:rgb(0, 255, 255);;animation:none"></path>
<path d="M660 337.5 L4650 1125" style="fill:none;stroke:rgb(0, 255, 255);;animation:none"></path>
<path d="M667.5 337.5 L4762.5 1125" style="fill:none;stroke:rgb(0, 255, 255);;animation:none"></path>
<path d="M675 337.5 L4875 1125" style="fill:none;stroke:rgb(0, 255, 255);;animation:none"></path>
<path d="M682.5 337.5 L4987.5 1125" style="fill:none;stroke:rgb(0, 255, 255);;animation:none"></path>
<path d="M690 337.5 L5100 1125" style="fill:none;stroke:rgb(0, 255, 255);;animation:none"></path>
<path d="M697.5 337.5 L5212.5 1125" style="fill:none;stroke:rgb(0, 255, 255);;animation:none"></path>
<path d="M705 337.5 L5325 1125" style="fill:none;stroke:rgb(0, 255, 255);;animation:none"></path>
<path d="M712.5 337.5 L5437.5 1125" style="fill:none;stroke:rgb(0, 255, 255);;animation:none"></path>
<path d="M720 337.5 L5550 1125" style="fill:none;stroke:rgb(0, 255, 255);;animation:none"></path>
<path d="M727.5 337.5 L5662.5 1125" style="fill:none;stroke:rgb(0, 255, 255);;animation:none"></path>
<path d="M735 337.5 L5775 1125" style="fill:none;stroke:rgb(0, 255, 255);;animation:none"></path>
<path d="M742.5 337.5 L5887.5 1125" style="fill:none;stroke:rgb(0, 255, 255);;animation:none"></path>
<path d="M750 337.5 L6000 1125" style="fill:none;stroke:rgb(0, 255, 255);;animation:none"></path>
<g transform="matrix(1,0,0,1,0,0)" style="transform:matrix(1, 0, 0, 1, 0, 0);;animation:none"><path d="M0 337.5 L750 337.5" style="fill:none;stroke:rgb(0, 255, 255);;animation:none"></path></g>
<g transform="matrix(1,0,0,1,0,0)" style="transform:matrix(1, 0, 0, 1, 0, 0);;animation:none"><path d="M0 347.58 L750 347.58" style="fill:none;stroke:rgb(0, 255, 255);;animation:none"></path></g>
<g transform="matrix(1,0,0,1,0,0)" style="transform:matrix(1, 0, 0, 1, 0, 0);;animation:none"><path d="M0 367.74 L750 367.74" style="fill:none;stroke:rgb(0, 255, 255);;animation:none"></path></g>
<g transform="matrix(1,0,0,1,0,0)" style="transform:matrix(1, 0, 0, 1, 0, 0);;animation:none"><path d="M0 397.98 L750 397.98" style="fill:none;stroke:rgb(0, 255, 255);;animation:none"></path></g>
<g transform="matrix(1,0,0,1,0,0)" style="transform:matrix(1, 0, 0, 1, 0, 0);;animation:none"><path d="M0 438.3 L750 438.3" style="fill:none;stroke:rgb(0, 255, 255);;animation:none"></path></g>
<g transform="matrix(1,0,0,1,0,0)" style="transform:matrix(1, 0, 0, 1, 0, 0);;animation:none"><path d="M0 488.7 L750 488.7" style="fill:none;stroke:rgb(0, 255, 255);;animation:none"></path></g>
<g transform="matrix(1,0,0,1,0,0)" style="transform:matrix(1, 0, 0, 1, 0, 0);;animation:none"><path d="M0 549.18 L750 549.18" style="fill:none;stroke:rgb(0, 255, 255);;animation:none"></path></g>
<g transform="matrix(1,0,0,1,0,0)" style="transform:matrix(1, 0, 0, 1, 0, 0);;animation:none"><path d="M0 619.74 L750 619.74" style="fill:none;stroke:rgb(0, 255, 255);;animation:none"></path></g>
<g transform="matrix(1,0,0,1,0,0)" style="transform:matrix(1, 0, 0, 1, 0, 0);;animation:none"><path d="M0 700.38 L750 700.38" style="fill:none;stroke:rgb(0, 255, 255);;animation:none"></path></g>
<g transform="matrix(1,0,0,1,0,0)" style="transform:matrix(1, 0, 0, 1, 0, 0);;animation:none"><path d="M0 791.1 L750 791.1" style="fill:none;stroke:rgb(0, 255, 255);;animation:none"></path></g>
<g transform="matrix(1,0,0,1,0,0)" style="transform:matrix(1, 0, 0, 1, 0, 0);;animation:none"><path d="M0 891.9 L750 891.9" style="fill:none;stroke:rgb(0, 255, 255);;animation:none"></path></g>
<g transform="matrix(1,0,0,1,0,0)" style="transform:matrix(1, 0, 0, 1, 0, 0);;animation:none"><path d="M0 1002.78 L750 1002.78" style="fill:none;stroke:rgb(0, 255, 255);;animation:none"></path></g>
<g transform="matrix(1,0,0,1,0,0)" style="transform:matrix(1, 0, 0, 1, 0, 0);;animation:none"><path d="M0 1123.74 L750 1123.74" style="fill:none;stroke:rgb(0, 255, 255);;animation:none"></path></g>
<rect fill="url(#fg-lg-0.6780650246356913)" height="1125" width="750" y="0" x="0" style="fill:url('#fg-lg-0.6780650246356913');;animation:none"></rect>
<g></g></g><!-- [ldio] generated by https://loading.io --></svg>